<svg width="20" height="20" viewBox="0 0 20 20" color = "black" fill="none" xmlns="http://www.w3.org/2000/svg">
<path d="M18.8417 5.875L14.1667 1.15834C14.0888 1.0811 13.9965 1.02 13.8949 0.978528C13.7934 0.937057 13.6847 0.916036 13.575 0.91667C13.3564 0.917591 13.1469 1.00438 12.9917 1.15834L1.15834 12.95C1.00313 13.1061 0.916008 13.3173 0.916008 13.5375C0.916008 13.7577 1.00313 13.9689 1.15834 14.125L5.875 18.8417C5.95287 18.9189 6.04521 18.98 6.14675 19.0215C6.24828 19.0629 6.357 19.084 6.46667 19.0833C6.68529 19.0824 6.89478 18.9956 7.05 18.8417L9.40834 16.4833L16.4833 9.40834L18.8417 7.05C18.9969 6.89387 19.084 6.68266 19.084 6.4625C19.084 6.24235 18.9969 6.03114 18.8417 5.875V5.875ZM15.8917 7.64167L15.3 7.05C15.1439 6.89479 14.9327 6.80768 14.7125 6.80768C14.4923 6.80768 14.2811 6.89479 14.125 7.05C14.0469 7.12747 13.9849 7.21964 13.9426 7.32119C13.9003 7.42274 13.8785 7.53166 13.8785 7.64167C13.8785 7.75168 13.9003 7.8606 13.9426 7.96215C13.9849 8.0637 14.0469 8.15587 14.125 8.23334L14.7167 8.825L13.5333 10L11.7667 8.23334C11.6073 8.09682 11.4022 8.02548 11.1925 8.03358C10.9827 8.04168 10.7838 8.12862 10.6354 8.27703C10.487 8.42545 10.4 8.6244 10.3919 8.83413C10.3838 9.04386 10.4551 9.24892 10.5917 9.40834L12.3583 11.175L11.175 12.3583L10.5917 11.7667C10.4347 11.6098 10.2219 11.5216 10 11.5216C9.77808 11.5216 9.56526 11.6098 9.40834 11.7667C9.25142 11.9236 9.16326 12.1364 9.16326 12.3583C9.16326 12.5803 9.25142 12.7931 9.40834 12.95L10 13.5333L8.825 14.7167L7.05 12.95C6.89387 12.7948 6.68266 12.7077 6.4625 12.7077C6.24235 12.7077 6.03114 12.7948 5.875 12.95C5.71979 13.1061 5.63267 13.3173 5.63267 13.5375C5.63267 13.7577 5.71979 13.9689 5.875 14.125L7.64167 15.8917L6.46667 17.075L2.925 13.5333L13.5333 2.925L17.075 6.46667L15.8917 7.64167Z" fill="white"/>
</svg>
